<?xml version="1.0" encoding="UTF-8"?>
<svg xmlns="http://www.w3.org/2000/svg" width="512" height="512" viewBox="0 0 512 512">
  <title>OV Logo</title>
  <desc>ODBVUE Consulting Logo</desc>
  
  <!-- Outer O - Right half arc -->
  <path d="M 348.15999999999997 124.16 A 131.84 131.84 0 0 1 348.15999999999997 387.84000000000003" 
        fill="none" 
        stroke="#00629e" 
        stroke-width="64" 
        stroke-linecap="round"/>
  
  <!-- Outer O - Left half arc -->
  <path d="M 163.84 387.84000000000003 A 131.84 131.84 0 0 1 163.83999999999997 124.16" 
        fill="none" 
        stroke="#00629e" 
        stroke-width="64" 
        stroke-linecap="round"/>
  
  <!-- Outer O - Bottom rectangle connector -->
  <rect x="163.84" y="355.84000000000003" width="184.31999999999996" height="64" fill="#00629e"/>
  
  <!-- Inner V -->
  <path d="
    M 76.05013791064124 117.6653126857498
    A 163.84 163.84 0 0 1 143.30540301282434 93.45192733663595
    L 256 291.84000000000003
    L 368.6945969871756 93.45192733663595
    A 163.84 163.84 0 0 1 435.94986208935876 117.66531268574985
    L 256 419.84000000000003
    L 76.05013791064124 117.6653126857498
    Z
  " 
        fill="#526070" 
        stroke="#526070" 
        stroke-width="1"/>
  
  <!-- Outer V -->
  <path d="
    M 163.83999999999997 92.16
    A 163.84 163.84 0 0 0 143.30540301282434 93.45192733663595
    L 256 291.84000000000003
    L 368.6945969871756 93.45192733663595
    A 163.84 163.84 0 0 0 348.1599999999999 92.16
    L 298.2672984935878 92.16
    L 256 170.53421789102296
    L 213.73270150641216 92.16
    L 163.83999999999997 92.16
    Z
  " 
        fill="#00629e" 
        stroke="#00629e" 
        stroke-width="1"/>
</svg>